/* XPM */
static char *ece467177e564650e106603eda71cb55PZFM3a6n7gfZw1MM[] = {
/* columns rows colors chars-per-pixel */
"64 64 196 2 ",
"   c None",
".  c #056431",
"X  c #096533",
"o  c #076933",
"O  c #0B6B35",
"+  c #116C37",
"@  c #156D3D",
"#  c #186F3F",
"$  c #0A7536",
"%  c #0B7D36",
"&  c #117137",
"*  c #107E34",
"=  c #157439",
"-  c #1A7C3B",
";  c #167B3A",
":  c #1A6F40",
">  c #1D7143",
",  c #217446",
"<  c #247649",
"1  c #29774C",
"2  c #2C794E",
"3  c #2F7A50",
"4  c #337C54",
"5  c #3B7F59",
"6  c #397E57",
"7  c #0B8337",
"8  c #0B8E36",
"9  c #0F8F38",
"0  c #1D8437",
"q  c #1A8C37",
"w  c #1D833C",
"e  c #118F38",
"r  c #1E8C3C",
"t  c #118F37",
"y  c #159039",
"u  c #1E913C",
"i  c #22843B",
"p  c #29833F",
"a  c #228C3D",
"s  c #20923D",
"d  c #1D9444",
"f  c #2C8743",
"g  c #258C41",
"h  c #2A8C43",
"j  c #348C4B",
"k  c #3A8A4E",
"l  c #338848",
"z  c #229445",
"x  c #2B9445",
"c  c #239649",
"v  c #2B974A",
"b  c #34934C",
"n  c #38914E",
"m  c #358056",
"M  c #3D8A50",
"N  c #3C815B",
"B  c #3C9352",
"V  c #3B9A53",
"C  c #379750",
"Z  c #438C55",
"A  c #42835E",
"S  c #488E59",
"D  c #429656",
"F  c #469459",
"G  c #4A955C",
"H  c #449C5A",
"J  c #4A9A5E",
"K  c #419857",
"L  c #458561",
"P  c #4A8664",
"I  c #4A8A67",
"U  c #4D8C6A",
"Y  c #458964",
"T  c #538C6C",
"R  c #588D6F",
"E  c #4D9C62",
"W  c #4F906C",
"Q  c #539363",
"!  c #599166",
"~  c #529B64",
"^  c #53916F",
"/  c #5D946B",
"(  c #5B9C6B",
")  c #569C68",
"_  c #5A8E71",
"`  c #5C9475",
"'  c #579171",
"]  c #60946C",
"[  c #639579",
"{  c #6B957E",
"}  c #659B7D",
"|  c #699A7E",
" . c #619874",
".. c #729C7C",
"X. c #4DA062",
"o. c #54A067",
"O. c #56A169",
"+. c #5BA36D",
"@. c #5EA570",
"#. c #64A273",
"$. c #6DA47A",
"%. c #75A07F",
"&. c #71A97E",
"*. c #6C9D82",
"=. c #739B85",
"-. c #7C9E8B",
";. c #709781",
":. c #69A082",
">. c #75A483",
",. c #7AAC86",
"<. c #74A389",
"1. c #7DAD89",
"2. c #7AA889",
"3. c #7CB68A",
"4. c #7EA891",
"5. c #819F8E",
"6. c #82A08F",
"7. c #84AD8E",
"8. c #81B28D",
"9. c #85A392",
"0. c #8AA595",
"q. c #84AC96",
"w. c #8BA897",
"e. c #8CA999",
"r. c #8EA598",
"t. c #93AB9D",
"y. c #92A79A",
"u. c #89B29B",
"i. c #86B394",
"p. c #93B39C",
"a. c #9DADA3",
"s. c #8FB7A1",
"d. c #95B3A2",
"f. c #9CB4A4",
"g. c #9DBCAB",
"h. c #9CB7A7",
"j. c #A1AFA6",
"k. c #A1B4A6",
"l. c #A3B8A7",
"z. c #A4B3AA",
"x. c #AAB5AE",
"c. c #A5BAAB",
"v. c #ABBDAF",
"b. c #AEB6B1",
"n. c #A6BEB1",
"m. c #ABBCB2",
"M. c #B4BBB6",
"N. c #BCBDBB",
"B. c #B0B6B2",
"V. c #C0BEBE",
"C. c #98C3A5",
"Z. c #A2C2AD",
"A. c #ACC5B7",
"S. c #A4C7B1",
"D. c #B5C3BB",
"F. c #BCC1BD",
"G. c #B3C8BC",
"H. c #B0D5BC",
"J. c #C0C0BF",
"K. c #C2BFC0",
"L. c #BDCCC3",
"P. c #BAD2C5",
"I. c #C5C3C3",
"U. c #C9C6C7",
"Y. c #C3CBC5",
"T. c #CCCBCB",
"R. c #C7CBC8",
"E. c #D0CECE",
"W. c #C4D4CB",
"Q. c #CAD4CD",
"!. c #C5D9CE",
"~. c #CAD9CE",
"^. c #D2CFD0",
"/. c #CCDAD1",
"(. c #CDD5D0",
"). c #D4D3D3",
"_. c #D8D6D7",
"`. c #D2DBD4",
"'. c #D6DCD8",
"]. c #DCDBDB",
"[. c #D9D8D8",
"{. c #E1DEDF",
"}. c #D4E2DA",
"|. c #DBE3DE",
" X c #E2DFE0",
".X c #DEE4E1",
"XX c #E5E3E5",
"oX c #E9E7E8",
"OX c #EEEDED",
"+X c #E6EAE7",
"@X c #F1EEEF",
"#X c #F2EFF0",
"$X c #F4F3F4",
"%X c #F9F7F7",
"&X c #F9F7F9",
"*X c #FDFBFC",
/* pixels */
"                                                        & > > > > 1 : :                                                         ",
"                                              : 3 I :.u.S.P.P./.!.P.P.Z.q.:.U 3 #                                               ",
"                                        : 6 *.g./.+X$X&X*X*X*X*X*X$X$X$X$XoX.XW.g.} 6 @                                         ",
"                                    > W d./.+X@X$X$X$X$X+X.X.X}.}.}..X.XoX@XOXoXXXXXQ.d.U >                                     ",
"                                : W n.].oXoXOX+X!.c.<.^ N 2 > > > > 1 N ^ <.g.W..XXX XXX[.c.T :                                 ",
"                              N d.[. XXX XW.u.I > o . . . . . . o . . . . . X > I q.Y.{.XX{.).p.N                               ",
"                          > | R.{.{.].G.*.> . . o O O $ $ % 7 7 7 7 7 % $ O o . . . > [ A._.]._.R.| >                           ",
"                        3 p.).].{.L.` : . . o $ % 7 8 8 8 8 8 8 8 8 8 8 8 9 7 % $ O X . @ ` D._._.).e.3                         ",
"                      N m._.[.).q.> . o O $ 7 8 8 8 8 8 8 8 8 8 8 8 8 8 8 8 8 8 8 8 % O X . , 4.Q.).).b.N                       ",
"                    A D.)._.F.U o . O $ 7 8 8 8 8 8 8 8 8 8 8 8 8 d E 7 8 8 8 8 8 8 8 8 % O . X I D.).^.D.L                     ",
"                  A D.).).c.4 . . $ 8 8 8 8 8 8 8 8 8 8 8 8 8 8 d C.g.7 8 8 8 8 8 8 8 8 8 7 $ X . 3 h.^.^.N.P                   ",
"                6 M.).E.d.> . o $ 8 8 8 8 8 8 8 8 8 8 8 8 8 8 c S.oXc.* 8 8 8 8 8 8 8 8 8 8 8 % X . > d.T.T.M.N                 ",
"              2 h.E.^.d.> . O % 8 8 8 8 8 8 8 8 8 8 8 8 9 8 c H.#XXXc.* 8 8 8 8 8 8 8 8 8 8 8 8 7 O . : e.T.T.c.4               ",
"            > 9.T.E.h.> o O 7 8 8 8 8 8 8 8 8 8 8 8 8 8 8 c H.&X@XXXc.* 8 8 8 8 8 8 8 8 8 8 8 8 8 7 X . > a.T.U.w.>             ",
"            ` U.T.M.3 . O % 8 8 8 8 8 8 8 8 8 8 8 8 8 8 c S.$X%XOXXXc.* 8 8 8 8 8 8 8 8 8 8 8 8 8 8 7 O . 2 b.T.I.[             ",
"          4 M.T.I.P . O % 8 8 8 8 8 8 8 8 8 8 8 8 8 8 d Z.XXOX%X@XXXv.7 8 8 8 8 8 8 8 8 8 8 8 8 8 8 8 7 X . L F.U.M.N           ",
"        : 9.U.U.<.X X % 8 8 8 8 8 8 8 8 8 8 8 8 8 8 9 1.Y.|.OX%X@XXXl.* 8 8 8 8 8 8 8 8 8 8 8 8 8 8 8 8 % X X ;.U.I.0.>         ",
"        L N.U.b.> o $ 7 8 8 8 8 8 8 8 8 8 8 8 8 8 8 8 s j Q.$X%X@XoXc.0 8 8 8 8 8 8 8 8 8 8 8 8 8 8 8 8 8 $ . > z.U.V.P         ",
"      : r.U.I.' . o 7 8 8 8 9 8 8 8 8 8 8 8 8 8 8 8 8 8 z W.$X%XOXXXc.7 8 8 8 8 8 8 8 8 8 8 8 8 8 8 8 9 8 8 o . T K.U.y.>       ",
"      L N.I.f.@ o $ 8 8 8 8 8 8 8 8 8 8 8 8 8 8 8 8 8 8 z !.$X%X@XoXc.8 8 8 8 8 8 8 8 8 8 8 8 8 8 8 8 8 8 8 % X + t.K.V.P       ",
"    : -.I.I.R . O 7 8 8 8 8 8 8 8 8 8 8 8 8 8 8 8 8 8 8 z !.$X%XOXXXc.* 8 8 8 8 8 8 8 8 8 8 8 8 8 9 8 8 8 8 8 o . T V.I.6.#     ",
"    3 x.K.x.> . $ 8 8 8 8 8 8 8 8 8 8 8 8 8 8 8 8 8 8 8 c !.#X$X@XXXc.* 8 8 8 8 8 8 8 8 8 8 8 8 8 8 8 8 8 8 8 % . # z.I.x.4     ",
"    R N.I.=.. O 7 8 8 8 8 8 8 8 8 8 8 8 8 8 8 8 8 8 8 8 c !.#X%X@XoXc.* 8 8 8 8 8 8 8 8 8 8 8 8 8 8 8 8 8 8 8 8 X . { K.V.R     ",
"  # -.I.N.N . $ 8 8 8 8 8 8 8 8 8 8 8 8 8 8 8 8 8 8 8 8 c !.$X%XOXXXc.* 8 8 8 8 8 8 8 8 8 8 8 8 8 8 8 8 8 8 8 8 $ . 6 N.J.6.:   ",
"  1 j.V.z.: o $ 8 8 8 8 8 8 8 8 8 8 8 8 8 8 8 8 8 8 8 8 c ~.$X%X@XXXl.* 8 8 8 8 8 8 8 8 8 8 8 8 8 8 8 8 8 8 8 8 % . + j.V.j.1   ",
"  5 M.V.9.X O 7 8 8 8 8 8 8 8 8 8 8 8 8 8 8 8 8 8 8 8 8 c /.$X%X@XXXl.* t e t e 9 9 9 9 8 8 9 9 8 8 8 8 8 8 8 8 8 X X -.V.N.A   ",
"  T N.V.` . O 7 8 8 8 8 8 8 8 8 8 8 8 8 8 8 8 9 8 9 9 9 v /.$X%XOXoXl.i s u u s u u u u y y y y t 9 8 8 8 8 8 8 8 + . R V.N.R   ",
"  { V.N.L . $ 8 8 8 8 8 8 8 8 8 8 8 8 8 8 9 t y y u u u C /.#X$X@XXXc.i s s s s s s u s s s s s u u u y t 9 8 8 8 $ . 6 N.V.{ @ ",
"@ -.V.B.3 X $ 8 8 8 8 8 8 8 8 8 8 8 y y y u s s s s s u V ~.@X%XOXoXc.i s s s s s s s s s s s s s s s s s u u y t & X 1 x.V.5.# ",
": 0.V.b., X $ 8 8 8 8 8 8 8 8 9 y u u s s s s s s s s u V `.$X%XOXXXl.i s s s s s s s s s s s s s s s s s s u s s - X > z.V.r.> ",
", y.V.z.# o % 8 8 8 8 8 8 9 y u d s s s s s s s s s s u V `.$X%X#XXXc.i s s s s s s s s s s s s s s s s s s s s s 0 X @ j.V.y.> ",
": t.V.j.# X % 8 8 8 9 y u u z s u u s s s s s s s s s u V ~.#X%X#XXXl.i s s s s s s s s s s s u s s s s s s s s s r X @ t.V.a.: ",
": y.V.j.@ O $ 8 9 y u s s s s s s s s s s s s s s s s s V /.$X%XOXoXl.0 s s s s s s s s s s s s s s s s s s s s s r X @ t.V.a.: ",
", y.V.z.> o % e u s u s s s s s s s s s s s s s s s s s V /.@X%XOXXXl.i s s s s s s s s s s s s s s s s s s s s s q X @ j.V.y.> ",
": r.V.x., o ; d u u s s s s s s s s s s s s s s s s s s V `.@X%X#XoXl.i s s s s s s s s s s s s s s s s s s s s s w X > z.V.y., ",
"+ -.V.M.2 . ; r s u s s s s s s s s s s s s s s s s s s V `.$X%XOXXXf.i s s s s s s s s s s s s s s s s s s s s s - . 1 B.V.5.# ",
"  { N.N.L o = r s s s s s s s s s s s s s s s s s s s u H `.#X%X@XoXl.i s s s s s s s s u s s s s s s s s s s s s = . 5 V.V.{ + ",
"  R N.V._ . & g s s s s s s s s s s s s s s s s s s s u V `.#X%X@XoXp.i s s s s s s s s s s s s s s s s s s s s a + . R V.V.R   ",
"  5 B.V.5.X & w s s s s s s s s s s s s s s s s s s s u V }.$X%X@XXXp.i s s s s s s s s s s s s s s s s s s s s a + X -.V.M.A   ",
"  1 j.K.z.: O - s s s s s s s s s s s s s s s s s s s u V }.@X%X@XXXf.0 s s s s s s s s s s s s s s s s s s s s 0 X # j.V.z.3   ",
"  # -.I.N.5 . = a u s s s s s s s s s s s s s s s s s u +..X#X%X@XXXv.i s s s s s s s s s s s s s s s s s s s u = X 6 N.V.9.:   ",
"    R V.V.=.. & w s s s s s s s s s s s s s s s s s s x Z.XX#X%X@X XT.F a s s s s s s s s s s s s s s s s s s a + . { K.V._     ",
"    4 x.I.z.> o - r s s s s s s s s s s s s s s s s K p.). XOX$XOX{._.l.) a u s s s s s s s s s s s s s s s u - X # j.I.b.4     ",
"    @ -.I.J.R . & w s s s s s s s s s s s s s s s s n Q ~ / +.] ( ) Q Q S i s s s s s s s s s s s s s s s s a + . P V.K.6.:     ",
"      L N.I.a.@ O - s s s s s s s s s s s s s u s s s r q u q r q r r q r u u s s u s s s s u s u s s s s s - X @ t.I.N.P       ",
"      > r.I.I.T . & 0 a s s s X.+.j s X.O.X.D O.x J G D +.n +.B a x +.D a s @.D J K s J D s X.+.+.b r s s a + . P I.I.y.>       ",
"        P F.U.x.> X = a s s O.] Z l $.Z a Q Z %.i ) ] V 8.p 7.f s s 7.l s s 8.Z ) p.n J Z ) Q p D k r s a = X : z.I.F.P         ",
"        > 9.U.U.=.X + - s s C 8.$.D ..i s s n 7.J ,.! C ,.i ,.p u s ,.f s s 3.k H ] 8.J Z ..p a H F a s - X . *.U.I.0.>         ",
"          6 M.U.I.L . $ - s b h &./ >.f r s V %.p ( ! C 7.i ,.p s s ,.f s s 8.Z J l o.e.Z %.k r O.] 0 w + . A N.U.M.6           ",
"            [ U.T.m.2 . & - E #. .l ) 7.@.F G %.p @.] H ,.k 8.) J k ,.( ] k ,.S ( F s #.k K >.) #.S 0 + . < x.U.U.[ @           ",
"            > w.T.T.h.> . = - j h r a x l i s a a x a p h a a h h a x h x i a a a a r s a u h b h - + . : d.T.U.r.>             ",
"              2 x.T.E.t.# . & - r s s u s s s s s s s s s s s s s s s s s s s s s s s s s s s s 0 + . # e.T.T.c.3               ",
"                N M.^.^.p.> . $ - r s s s s s d s s s s s s s s s s s s s s s s s s s s s s s - @ . > e.T.T.M.N                 ",
"                  L F.).).z.3 . O = w a s s s u s s s s s s s s s s s s s s s s s s s s s w = X . < d.^.^.F.P                   ",
"                    I D.).).D.I . X + - w s r u s s s s s s s s s s s s s s s s s s s a - O X X L D.).^.D.P                     ",
"                      N m.).].^.4.> . O & - g r s s s s s s s s s s s s s s s s s i - @ X . > <.T.).).b.L                       ",
"                        3 p._.].].G.` @ . o + = - w r u r u u d s s u s s r w - = + o . @ ' D.)._.).d.4                         ",
"                          > *.R.].XX].G.` > . . O + & = - w w w - i - - = = + O . o > ' A.[.].].R.*.,                           ",
"                              N d.[.XXXXXXW.q.Y > o . . o o o O O X o . . . o : A 4.L.].].].).d.N @                             ",
"                                > ^ n.{.oXoXOXXX!.g.<.W 4 1 > : # > < 4 I :.h.L.].XXXXXX].n.' >                                 ",
"                                    > ^ h./.oX@X#X%X$X#XOX.X}.!.!./.'..X+XOXOXoXoXXXQ.d.^ >                                     ",
"                                        : N *.Z./.oX$X*X*X*X*X*X*X%X%X$X$XoX.XQ.g.*.N @                                         ",
"                                              > m W :.s.S.P.!.!.!.W.P.Z.u.:.U 3 :                                               ",
"                                                        : < < < > < > : @                                                       "
};
