/* XPM */
static char *e7151a5b74a842ee9f2b7f9533b84085rrOC4COhnm0XWibj[] = {
/* columns rows colors chars-per-pixel */
"32 32 156 2 ",
"   c None",
".  c #0C6E36",
"X  c #126E3A",
"o  c #196F3F",
"O  c #067433",
"+  c #0C7435",
"@  c #077B34",
"#  c #087C34",
"$  c #117536",
"%  c #137837",
"&  c #13703A",
"*  c #177E39",
"=  c #1B7D3B",
"-  c #1B7141",
";  c #227547",
":  c #207F40",
">  c #237648",
",  c #29764C",
"<  c #2A7A4E",
"1  c #2D7C51",
"2  c #337C54",
"3  c #387F58",
"4  c #078233",
"5  c #0A8335",
"6  c #078B32",
"7  c #0B8E36",
"8  c #158339",
"9  c #1A843A",
"0  c #138F38",
"q  c #1E8C3C",
"w  c #16903A",
"e  c #1E913C",
"r  c #218F3E",
"t  c #20923D",
"y  c #1A9341",
"u  c #258E40",
"i  c #269041",
"p  c #2A9245",
"a  c #2E934A",
"s  c #34954C",
"d  c #38904E",
"f  c #3A825A",
"g  c #3B9251",
"h  c #429456",
"j  c #46975A",
"k  c #4A955D",
"l  c #438561",
"z  c #498564",
"x  c #418862",
"c  c #548A6D",
"v  c #588C6F",
"b  c #4F9660",
"n  c #4D9960",
"m  c #519461",
"M  c #549A65",
"N  c #579F69",
"B  c #5B9D6B",
"V  c #5B8E72",
"C  c #559371",
"Z  c #5D9275",
"A  c #619578",
"S  c #6B957D",
"D  c #639A7D",
"F  c #6B997F",
"G  c #5DA072",
"H  c #63A174",
"J  c #68A477",
"K  c #6D9780",
"L  c #6D9B81",
"P  c #709781",
"I  c #729983",
"U  c #7B9F8A",
"Y  c #71A387",
"T  c #74A68B",
"R  c #7DA48F",
"E  c #7EAC89",
"W  c #74B689",
"Q  c #77B88C",
"!  c #79B98D",
"~  c #7FA791",
"^  c #7FA992",
"/  c #84A492",
"(  c #88A494",
")  c #85AB96",
"_  c #88AB97",
"`  c #87AE98",
"'  c #89AE99",
"]  c #96AB9F",
"[  c #98AB9F",
"{  c #85BB92",
"}  c #89BD96",
"|  c #86B199",
" . c #8AB59D",
".. c #8ABF9B",
"X. c #91B79A",
"o. c #97AEA1",
"O. c #90B7A1",
"+. c #9AB1A4",
"@. c #92B9A4",
"#. c #9CBFA4",
"$. c #9EB6A9",
"%. c #9CB9A9",
"&. c #A1AFA6",
"*. c #A5B2AA",
"=. c #ABB5AE",
"-. c #A2BBAD",
";. c #AEB6B1",
":. c #B3BAB5",
">. c #B6BCB8",
",. c #B8BFBA",
"<. c #91C1A0",
"1. c #99CBA9",
"2. c #A1C5AA",
"3. c #A6C3B1",
"4. c #AFC0B6",
"5. c #B1C1B7",
"6. c #B0CCB6",
"7. c #B2C3B9",
"8. c #B9C1BC",
"9. c #B4C8BD",
"0. c #BFC5C1",
"q. c #B9CDC1",
"w. c #C1C6C3",
"e. c #C2CBC6",
"r. c #C5CEC8",
"t. c #C7D1CB",
"y. c #C7D2CC",
"u. c #CAD1CD",
"i. c #CCD3CF",
"p. c #CAD2CD",
"a. c #D0D8D4",
"s. c #D1DAD4",
"d. c #D1DBD5",
"f. c #D5DFD9",
"g. c #D8DFDB",
"h. c #D4E0D9",
"j. c #D7E1DB",
"k. c #D7E4DD",
"l. c #D4E2DA",
"z. c #DAE0DC",
"x. c #D8E1DB",
"c. c #DCE7E1",
"v. c #DDE8E2",
"b. c #E0E7E3",
"n. c #E0E7E3",
"m. c #E9E7E8",
"M. c #E9E8E8",
"N. c #E9E8E9",
"B. c #EAE8E9",
"V. c #EBE8EA",
"C. c #EFEAED",
"Z. c #F3F2F2",
"A. c #F5F3F4",
"S. c #F6F3F4",
"D. c #F6F3F5",
"F. c #F9F5F8",
/* pixels */
"                        C T  .@.O.' Y C                         ",
"                    ' q.f.v.v.k.l.l.l.a.9.'                     ",
"                ' y.a.3.L x 1 > - < x L -.i.r.)                 ",
"            Z 7.u.) 1 . O @ 4 5 7 4 @ O . 1 ~ e.4.Z             ",
"          L e.-.f O @ 5 7 7 7 7 y y 7 7 7 @ . f %.0.L           ",
"        L w._ - @ 7 7 7 7 7 7 w ..B 7 7 7 7 6 @ - ( 0.L         ",
"      Z ,.( X # 7 7 7 7 7 7 y 1.N.G 7 7 7 7 7 7 # X / >.Z       ",
"      *.+.- # 7 7 7 7 7 7 y <.Z.V.Z 7 7 7 7 7 7 7 # - o.*.      ",
"    U >.3 O 7 7 7 7 7 7 7 a 3.A.N.H 6 7 7 7 7 7 7 7 O 2 :.U     ",
"    ;.I . 5 7 7 7 7 7 7 7 6 Q A.N.G 6 7 7 7 7 7 7 7 7 . K ;.    ",
"  K ;.1 @ 7 7 7 7 7 7 7 7 6 Q S.N.H 6 7 7 7 7 7 7 7 7 5 , ;.I   ",
"  o.( . 7 7 7 7 7 7 7 7 7 6 Q S.N.G 6 7 7 7 7 7 7 7 7 7 . / o.  ",
"z =.v O 7 7 7 7 7 7 7 7 7 6 Q S.N.H 6 0 7 7 7 7 7 7 7 6 O c =.z ",
"V ;.3 # 7 7 7 7 7 7 7 w w w { S.N.J e e e e t e w 0 0 7 # 2 ;.v ",
"S =.; # 7 7 7 7 w w e t e e { S.M.J e e t t t t t t e e 8 ; *.S ",
"K &.- 5 7 7 0 i e e y t t e { S.M.J e e t t t t t t r r r - &.P ",
"F &.o 5 w e t t t t t t e e { S.M.J e e t t t t t t t t e o &.F ",
"S =., 8 t t t t t t t t e e } S.M.H e t t t t t t t t t 9 ; =.S ",
"v ;.3 * t t t t t t t t t e } S.m.H e e t t t t t t t t = 2 =.V ",
"z =.c $ t t t t t t t t t e } S.m.H e t t t t t t t t t % c =.z ",
"  [ ( X q r t t t t t t t a 6.F.V./ t t t t t t t t t r X / [   ",
"  I ;., * r t e e e e t t n X.2.#.E s t t t t t t t t = , =.I   ",
"    =.I $ r t a a a s s s s s s t s r g s p p s a t r . S =.    ",
"    R >.3 % t M M k a B M M M k r n p B B N m h h t % 2 :./     ",
"      *.+.- 8 j B m s m k M M M s M g M h M k k k = o ] *.      ",
"      Z 8./ & : r i p i u i i p p p p i i t i p = X / 8.C       ",
"        L w._ - $ q t e t t t t t e e t t t r % o / 8.L         ",
"          L w.-.f & 8 q t t t t t t t r r 8 . 2 *.w.I           ",
"            A 7.p.) 1 & $ * 8 q 9 9 * $ & 1 R r.7.A             ",
"                ' p.s.-.L x < > > < f D %.p.e.'                 ",
"                     .q.h.n.v.l.h.h.x.d.9.`                     ",
"                        C T  .@.O.| Y C                         "
};
