/* XPM */
static char *df47412162234aa78a2d51d1efd31262sqQj3eDGkww5O4QR[] = {
/* columns rows colors chars-per-pixel */
"16 16 163 2 ",
"   c None",
".  c #088533",
"X  c #088434",
"o  c #088534",
"O  c #088634",
"+  c #078A33",
"@  c #088B34",
"#  c #0B8B35",
"$  c #098C34",
"%  c #098C35",
"&  c #098D35",
"*  c #0B8C35",
"=  c #0A8E35",
"-  c #0A8E36",
";  c #0B8E36",
":  c #0B8F36",
">  c #0C8C36",
",  c #0D8C36",
"<  c #0D8D37",
"1  c #0C8E36",
"2  c #0E8E37",
"3  c #0E8F39",
"4  c #13803C",
"5  c #198739",
"6  c #118F38",
"7  c #178E3A",
"8  c #198839",
"9  c #1A883A",
"0  c #1A893A",
"q  c #1C8E3A",
"w  c #1C8F3A",
"e  c #1D8F3B",
"r  c #139039",
"t  c #12903B",
"y  c #149039",
"u  c #169039",
"i  c #16913C",
"p  c #15923E",
"a  c #1B903B",
"s  c #1A913B",
"d  c #1D903B",
"f  c #1C913B",
"g  c #1E913B",
"h  c #1D913C",
"j  c #1F923C",
"k  c #1F923D",
"l  c #21903D",
"z  c #20923D",
"x  c #20933D",
"c  c #21933D",
"v  c #189140",
"b  c #218147",
"n  c #208246",
"m  c #238248",
"M  c #238448",
"N  c #238449",
"B  c #298348",
"V  c #2B8248",
"C  c #2A8349",
"Z  c #28834A",
"A  c #298449",
"S  c #2B854B",
"D  c #2C844A",
"F  c #2C854B",
"G  c #29894E",
"H  c #2A8A4F",
"J  c #249340",
"K  c #259441",
"L  c #259442",
"P  c #2B9145",
"I  c #299244",
"U  c #2E9348",
"Y  c #36934D",
"T  c #33974D",
"R  c #35944D",
"E  c #38924F",
"W  c #38944F",
"Q  c #328553",
"!  c #338554",
"~  c #398655",
"^  c #3A8656",
"/  c #328A51",
"(  c #338B52",
")  c #3D8F5E",
"_  c #3A9251",
"`  c #3A9550",
"'  c #3B9551",
"]  c #3B9652",
"[  c #3C9452",
"{  c #3D9453",
"}  c #3C9753",
"|  c #3F9655",
" . c #3E9E5D",
".. c #3E9060",
"X. c #428F5F",
"o. c #439858",
"O. c #47985B",
"+. c #47985C",
"@. c #449161",
"#. c #589070",
"$. c #5B9171",
"%. c #5A9172",
"&. c #5C9272",
"*. c #689F7F",
"=. c #699F7F",
"-. c #709C83",
";. c #719C84",
":. c #739E85",
">. c #739E86",
",. c #6AA182",
"<. c #6CA282",
"1. c #75A088",
"2. c #76A188",
"3. c #78A38A",
"4. c #78A38B",
"5. c #819E8E",
"6. c #819F8E",
"7. c #829F8F",
"8. c #81A08F",
"9. c #82A18F",
"0. c #82A390",
"q. c #83A291",
"w. c #85A191",
"e. c #84A391",
"r. c #86A292",
"t. c #83A491",
"y. c #84A492",
"u. c #85A492",
"i. c #85A493",
"p. c #8DAA99",
"a. c #8DAA9A",
"s. c #8CAC9A",
"d. c #8EAC9B",
"f. c #8DAE9B",
"g. c #8EAF9C",
"h. c #94BC9E",
"j. c #93B2A0",
"k. c #94B2A1",
"l. c #96B5A4",
"z. c #97B5A4",
"x. c #98B7A6",
"c. c #99B8A7",
"v. c #9CBBAA",
"b. c #A3BFB0",
"n. c #8BC39D",
"m. c #9BC2A7",
"M. c #A2C5AD",
"N. c #A5C6AE",
"B. c #A6C6AE",
"V. c #A7C7AE",
"C. c #A8C7AF",
"Z. c #A6C8AE",
"A. c #A5C0B2",
"S. c #A5C3B3",
"D. c #A6C4B4",
"F. c #A9C5B6",
"G. c #A9C7B7",
"H. c #AFD3BA",
"J. c #B3D3BC",
"K. c #B7D4BE",
"L. c #B8D5BF",
"P. c #BCD7C3",
"I. c #BDD6C5",
/* pixels */
"          v.F.F.D.A.c.          ",
"      g.l.,...H H ..*.k.d.      ",
"    d.4.N X + i  .@ X b 2.a.    ",
"  t.>.4 - - 6 n.m.3 ; ; 4 -.i.  ",
"  i.b ; ; ; i I.M.1 ; ; ; n q.  ",
"9.%.O ; ; ; 3 J.M.; ; ; ; . %.9.",
"r.! @ ; ; 1 i J.N.7 u u 6 1 Q r.",
"7.m 1 r s f J K.N.l k l l l F >.",
"7.Z s l x l K L.N.l l x x f F 9.",
"r.~ k x x x K P.C.l x x l k ~ r.",
"9.%.0 x l x R Z.h.I x l l 0 #.9.",
"  i.V U | ` O.O.[ [ o.[ P B q.  ",
"  i.>.V _ Y [ [ R W ` ` V -.9.  ",
"    d.3.F 5 q f f f 0 F 2.a.    ",
"      d.l.<.@.( / X.*.g.d.      ",
"          v.G.G.S.b.c.          "
};
